<svg xmlns="http://www.w3.org/2000/svg" viewBox="0 0 200 200" fill="none">
  <!-- Background circle -->
  <circle cx="100" cy="100" r="96" fill="#161b22" stroke="#30363d" stroke-width="2"/>
  
  <!-- Wand -->
  <line x1="55" y1="145" x2="125" y2="55" stroke="#c9a0dc" stroke-width="6" stroke-linecap="round"/>
  
  <!-- Wand tip glow -->
  <circle cx="125" cy="55" r="4" fill="#e0c097"/>
  <circle cx="125" cy="55" r="10" fill="#e0c097" opacity="0.15"/>
  <circle cx="125" cy="55" r="18" fill="#e0c097" opacity="0.06"/>
  
  <!-- Sparkles -->
  <!-- Top sparkle -->
  <path d="M140 35 L143 28 L146 35 L153 38 L146 41 L143 48 L140 41 L133 38 Z" fill="#c9a0dc" opacity="0.9"/>
  <!-- Right sparkle -->
  <path d="M152 62 L154 57 L156 62 L161 64 L156 66 L154 71 L152 66 L147 64 Z" fill="#c9a0dc" opacity="0.6"/>
  <!-- Small sparkle -->
  <path d="M132 28 L133.5 24 L135 28 L139 29.5 L135 31 L133.5 35 L132 31 L128 29.5 Z" fill="#e0c097" opacity="0.5"/>
  
  <!-- k8 text -->
  <text x="100" y="182" text-anchor="middle" font-family="system-ui, -apple-system, sans-serif" font-weight="700" font-size="22" fill="#8b949e" letter-spacing="0.05em">k8-one</text>
</svg>
